<svg width="20" height="20" viewBox="0 0 20 20" fill="none" xmlns="http://www.w3.org/2000/svg">
<path d="M10.0009 5.95324L8.6365 4.55662L8.63594 4.55605C8.28804 4.20177 7.87304 3.92037 7.41517 3.72827C6.95731 3.53617 6.46575 3.43723 5.96922 3.43723C5.47269 3.43723 4.98113 3.53617 4.52326 3.72827C4.06544 3.92035 3.65047 4.20172 3.3026 4.55595C2.58865 5.28087 2.18846 6.25752 2.18846 7.275C2.18846 8.29259 2.58874 9.26935 3.30284 9.9943L3.30313 9.99459L9.77812 16.5508L10.0005 16.776L10.2228 16.5508L16.6978 9.99459L16.6981 9.9943C17.4122 9.26935 17.8125 8.29259 17.8125 7.275C17.8125 6.25753 17.4123 5.28088 16.6983 4.55595C16.3506 4.20148 15.9357 3.91997 15.4778 3.72791C15.02 3.53591 14.5286 3.43718 14.0322 3.4375C14.0319 3.4375 14.0317 3.4375 14.0315 3.4375L14.0317 3.75C13.5746 3.74935 13.122 3.84089 12.701 4.01915C12.2801 4.19741 11.8994 4.45874 11.5817 4.7875L10.0009 5.95324ZM10.0009 5.95324L11.357 4.57036C11.3573 4.57007 11.3576 4.56977 11.3578 4.56948L10.0009 5.95324ZM10.9162 4.11998L10.9173 4.11879C11.3233 3.70475 11.8079 3.37593 12.3427 3.15161C12.8774 2.9273 13.4516 2.81201 14.0315 2.8125L14.0317 2.5L14.0316 2.8125C14.6115 2.81266 15.1856 2.92827 15.7204 3.15259C16.2551 3.3769 16.7398 3.70542 17.1463 4.11899C17.9752 4.96282 18.4397 6.09839 18.4397 7.28125C18.4397 8.46399 17.9753 9.59945 17.1465 10.4433C17.1465 10.4433 17.1464 10.4434 17.1463 10.4435L10.0005 17.6802L2.85465 10.4435C2.85455 10.4434 2.85445 10.4433 2.85435 10.4432C2.02562 9.59941 1.56128 8.46397 1.56128 7.28125C1.56128 6.09839 2.02573 4.96282 2.85465 4.11899C3.2612 3.70568 3.74594 3.37742 4.28064 3.15333C4.81539 2.92923 5.38941 2.81381 5.96922 2.81381C6.54903 2.81381 7.12305 2.92923 7.6578 3.15333C8.19255 3.37744 8.67735 3.70575 9.08392 4.11913L9.08476 4.11998L9.77851 4.81998L10.0005 5.04394L10.2224 4.81998L10.9162 4.11998Z" fill="#BDBDBD" stroke="#252B42" stroke-width="0.625"/>
</svg>
