<svg width="414" height="1173" viewBox="0 0 414 1173" fill="none" xmlns="http://www.w3.org/2000/svg">
<rect width="414" height="1173" fill="#FAFAFA"/>
<g clip-path="url(#clip0_1_344)">
<g clip-path="url(#clip1_1_344)">
<path d="M166.142 206.948L175.059 207.136C171.986 206.056 169.006 204.742 166.142 203.192V206.948ZM179.575 205.704V206.948L175.059 207.136C183.556 210.07 191.332 210.469 197.106 208.826C192.473 208.873 186.443 208.216 179.575 205.704ZM274.772 178.662C278.474 178.662 281.501 175.634 281.501 171.878C281.501 168.122 278.497 166.127 274.772 166.127C271.071 166.127 268.044 168.145 268.044 171.878C268.044 175.61 271.047 178.662 274.772 178.662ZM268.021 206.948H281.501V181.009H268.021V206.948ZM250.862 206.948H264.342V161.103L250.862 167.512V206.948ZM243.645 178.92C239.408 174.648 231.911 174.906 231.911 174.906C231.911 174.906 224.392 174.648 220.178 178.92C215.941 183.192 216.266 186.878 216.266 191.267C216.266 195.657 215.941 199.319 220.178 203.591C224.415 207.864 231.911 207.605 231.911 207.605C231.911 207.605 239.431 207.864 243.645 203.591C247.882 199.319 247.556 195.657 247.556 191.267C247.533 186.854 247.859 183.169 243.645 178.92ZM234.379 195.798C234.379 196.643 233.96 198.732 231.888 198.732C229.816 198.732 229.397 196.643 229.397 195.798V186.314C229.397 184.272 231.097 183.756 231.888 183.756C232.68 183.756 234.379 184.249 234.379 186.314V195.798ZM209.655 178.92C205.417 174.648 197.921 174.906 197.921 174.906C197.921 174.906 190.424 174.648 186.187 178.92C185.745 179.366 185.326 179.835 184.953 180.328C176.06 173.38 168.074 169.413 161.183 165.986V161.127L155.945 163.615C143.28 158.427 135.224 159.342 133.292 163.638C133.292 163.638 127.495 171.338 147.68 189.648V206.948H161.16V200.235C159.646 199.249 158.133 198.192 156.643 197.042C153.198 194.413 150.264 191.972 147.703 189.671V182.394C150.753 185.845 154.804 189.765 160.135 194.202L161.183 195.047V188.051C161.183 186.432 161.579 183.779 163.697 183.779C165.816 183.779 166.165 185.399 166.165 187.3V198.732C170.356 201.596 174.849 203.92 179.599 205.681V183.638C179.599 179.249 176.479 174.859 170.146 174.859C166.468 174.835 163.046 176.784 161.183 180V167.253C170.938 172.159 180.716 178.169 184.441 180.939C182.066 184.366 182.276 187.535 182.276 191.197C182.276 195.587 181.95 199.249 186.187 203.521C190.424 207.793 197.921 207.535 197.921 207.535C197.921 207.535 205.441 207.793 209.655 203.521C213.892 199.249 213.543 195.587 213.543 191.197C213.543 186.854 213.892 183.169 209.655 178.92ZM147.68 167.512V182.371C136.342 169.577 138.624 164.53 139.485 163.803C142.628 161.127 148.215 161.925 154.478 164.296L147.68 167.512ZM200.412 195.798C200.412 196.643 199.993 198.732 197.921 198.732C195.849 198.732 195.43 196.643 195.43 195.798V186.314C195.43 184.272 197.129 183.756 197.921 183.756C198.712 183.756 200.412 184.249 200.412 186.314V195.798Z" fill="#737373"/>
</g>
<g clip-path="url(#clip2_1_344)">
<path d="M137.5 271.67H158.621V328.746C158.621 337.798 162.694 343.185 166.006 345.428C162.558 348.464 152.106 351.144 144.233 344.662C139.618 340.833 137.5 334.461 137.5 328.527V271.67ZM269.414 319.119V313.103H275.876V292.099H268.79C266.048 279.437 254.89 270.029 241.56 270.029C226.194 270.029 213.679 282.609 213.679 298.116V347.123C218.022 347.752 223.289 347.041 227.714 343.295C232.357 339.466 234.447 333.121 234.447 327.159V325.327H244.981V304.324H234.447V297.952C234.447 288.489 248.619 288.489 248.619 297.952V319.037C248.619 334.516 261.107 347.123 276.5 347.123V326.202C272.563 326.202 269.414 323.002 269.414 319.119ZM189.516 292.044V322.948C189.516 327.159 183.055 327.159 183.055 322.948V292.044H162.205V328.335C162.205 334.844 164.377 343.103 174.422 345.811C184.467 348.491 190.222 342.912 190.222 342.912C189.652 346.577 186.286 349.284 180.747 349.831C176.539 350.269 171.191 348.846 168.531 347.698V366.923C175.345 368.975 182.512 369.604 189.598 368.209C202.385 365.72 210.448 354.972 210.448 340.642V291.908H189.516V292.044Z" fill="#737373"/>
</g>
<g clip-path="url(#clip3_1_344)">
<path d="M281.5 429.212C262.689 441.83 260.687 450.988 259.057 453.79C257.497 456.662 256.333 467.986 253.632 473.471C250.908 479.027 241.014 483.406 238.243 485.242C235.52 487.078 231.655 494.212 228.489 500.356C203.322 499.32 189.516 509.491 168.144 522.392C174.988 520.108 178.224 518.46 178.224 518.46C200.155 509.985 210.655 502.381 243.668 506.877C243.924 506.877 244.11 507.019 244.32 507.066C245.228 507.584 245.554 508.69 245.042 509.608L232.493 532.162C231.911 533.268 230.677 533.857 229.443 533.598C199.922 527.995 176.618 537.67 155.199 537.976C138.111 538.235 132.5 530.09 132.5 529.713C132.5 529.454 132.64 529.313 132.896 529.313C132.896 529.313 141.812 529.313 156.899 525.711C174.034 492.681 189.306 481.122 205.929 481.122C205.929 481.122 222.622 481.122 227.022 495.695C232.33 486.349 233.61 484.112 233.61 484.112C234.844 481.899 241.759 465.938 253.725 450.824C265.715 435.757 274.772 432.013 281.5 429.212Z" fill="#737373"/>
</g>
<g clip-path="url(#clip4_1_344)">
<g clip-path="url(#clip5_1_344)">
<path d="M170.916 602.705L160.835 604.795L160.788 637.159C160.788 643.136 165.398 647 171.521 647C174.92 647 177.411 646.386 178.785 645.659V637.977C177.458 638.5 170.939 640.364 170.939 634.409V620.045H178.785V611.455H170.939L170.916 602.705ZM191.659 614.432L191.031 611.455H182.091V646.273H192.404V622.841C194.849 619.705 198.97 620.318 200.297 620.727V611.455C198.9 610.977 194.08 610.091 191.659 614.432ZM213.148 598L202.764 600.159V608.386L213.148 606.227V598ZM142.955 621.705C142.955 620.136 144.305 619.523 146.47 619.5C149.613 619.5 153.618 620.432 156.761 622.091V612.591C153.338 611.273 149.916 610.75 146.494 610.75C138.112 610.75 132.525 615.023 132.525 622.159C132.525 633.341 148.24 631.523 148.24 636.341C148.24 638.205 146.587 638.818 144.282 638.818C140.86 638.818 136.436 637.432 132.967 635.591V644.682C136.809 646.295 140.697 646.977 144.259 646.977C152.849 646.977 158.763 643.386 158.763 636.114C158.763 624.091 142.955 626.25 142.955 621.705ZM281.502 629.273C281.502 618.932 276.38 610.773 266.555 610.773C256.73 610.773 250.747 618.932 250.747 629.205C250.747 641.364 257.801 646.977 267.859 646.977C272.794 646.977 276.496 645.886 279.313 644.364V636.773C276.496 638.159 273.26 639 269.163 639C265.135 639 261.596 637.614 261.13 632.886H281.362C281.408 632.364 281.502 630.25 281.502 629.273ZM261.037 625.455C261.037 620.909 263.901 619 266.485 619C269.023 619 271.723 620.909 271.723 625.455H261.037ZM234.753 610.773C230.702 610.773 228.094 612.636 226.651 613.932L226.115 611.432H217.013V657.977L227.349 655.841L227.373 644.432C228.863 645.5 231.074 646.977 234.683 646.977C242.086 646.977 248.838 641.705 248.838 628.886C248.861 617.159 242.017 610.773 234.753 610.773ZM232.285 638.614C229.864 638.614 228.42 637.75 227.419 636.705L227.349 621.705C228.42 620.545 229.91 619.705 232.285 619.705C236.057 619.705 238.664 623.841 238.664 629.114C238.687 634.545 236.126 638.614 232.285 638.614ZM202.788 646.273H213.171V611.455H202.788V646.273Z" fill="#737373"/>
</g>
</g>
<g clip-path="url(#clip6_1_344)">
<g clip-path="url(#clip7_1_344)">
<path d="M173.733 751.371C173.561 756.769 176.259 759.16 176.326 760.678C176.294 760.987 176.189 761.284 176.019 761.544C175.849 761.804 175.619 762.019 175.349 762.172L172.298 764.308C171.904 764.585 171.438 764.743 170.957 764.765C170.854 764.761 169.005 765.202 166.076 758.662C164.289 760.892 162.015 762.685 159.429 763.901C156.843 765.118 154.013 765.727 151.155 765.681C147.275 765.893 136.76 763.478 137.301 752.283C136.922 743.16 145.419 737.492 154.205 737.971C155.897 737.976 159.353 738.059 165.404 739.465V735.743C166.045 729.436 161.901 724.543 154.725 725.277C154.153 725.279 150.101 725.158 143.8 727.687C142.046 728.492 141.822 728.359 141.238 728.359C139.472 728.359 140.199 723.239 140.538 722.591C141.779 721.065 149.084 718.217 156.252 718.258C161.046 717.834 165.813 719.313 169.524 722.376C171.033 724.064 172.184 726.04 172.908 728.185C173.631 730.33 173.913 732.599 173.735 734.856L173.733 751.371ZM153.138 759.091C160.866 758.979 164.138 754.331 164.884 751.828C165.471 749.433 165.373 747.917 165.373 745.298C163.068 744.745 159.751 744.142 155.945 744.137C152.334 743.865 145.74 745.479 145.998 751.826C145.702 755.828 148.648 759.31 153.138 759.091ZM193.871 764.584C191.998 764.756 191.125 763.426 190.849 762.113L178.981 722.87C178.75 722.207 178.597 721.523 178.523 720.825C178.479 720.537 178.552 720.243 178.724 720.009C178.897 719.774 179.155 719.618 179.443 719.573C179.5 719.564 178.936 719.573 184.746 719.573C186.838 719.364 187.52 721.011 187.737 722.045L196.249 755.611L204.152 722.045C204.278 721.278 204.853 719.407 207.202 719.604H211.292C211.809 719.562 213.94 719.485 214.314 722.076L222.278 756.071L231.065 722.076C231.18 721.556 231.713 719.366 234.087 719.604H238.787C238.989 719.573 240.252 719.411 240.038 721.649C239.935 722.09 240.85 719.109 227.467 762.144C227.192 763.457 226.318 764.787 224.445 764.615H219.991C217.383 764.889 217.009 762.313 216.969 762.053L209.066 729.369L201.254 762.02C201.216 762.28 200.842 764.856 198.232 764.582H193.871V764.584ZM259.046 765.926C257.645 765.929 250.962 765.855 245.376 762.997C244.82 762.761 244.346 762.366 244.014 761.86C243.683 761.355 243.509 760.763 243.515 760.158V757.596C243.515 755.582 244.992 755.952 245.619 756.192C248.012 757.16 249.547 757.894 252.485 758.48C261.219 760.275 265.061 757.932 266.003 757.413C269.136 755.551 269.384 751.292 267.254 749.083C264.756 746.988 263.565 746.909 254.592 744.077C253.486 743.77 244.177 740.834 244.156 731.598C244.011 724.867 250.126 718.208 260.724 718.263C263.743 718.26 271.789 719.247 273.967 721.985C274.289 722.484 274.448 723.07 274.425 723.663V726.073C274.425 727.131 274.039 727.66 273.264 727.66C271.427 727.455 268.166 724.998 261.548 725.098C259.906 725.012 252.042 725.315 252.395 731.05C252.292 735.569 258.736 737.263 259.473 737.459C268.162 740.073 271.067 740.507 274.515 744.509C278.6 749.812 276.398 756.021 275.552 757.722C271.005 766.658 259.246 765.931 259.046 765.926ZM268.626 790.919C251.937 803.246 227.71 809.807 207.024 809.807C179.112 809.991 152.141 799.727 131.413 781.032C129.856 779.628 131.229 777.705 133.121 778.775C156.115 791.93 182.149 798.841 208.639 798.825C228.422 798.718 247.988 794.705 266.215 787.015C269.022 785.823 271.403 788.874 268.626 790.919ZM275.583 782.984C273.448 780.239 261.455 781.702 256.086 782.343C254.468 782.527 254.194 781.123 255.66 780.086C265.209 773.372 280.893 775.295 282.694 777.553C284.494 779.81 282.206 795.526 273.266 803.034C271.894 804.194 270.581 803.582 271.191 802.056C273.202 796.992 277.718 785.732 275.583 782.984Z" fill="#737373"/>
</g>
</g>
<g clip-path="url(#clip8_1_344)">
<path d="M264.69 924.554C259.995 924.554 255.863 926.515 252.827 929.583C241.652 921.771 226.595 916.743 209.911 916.205L218.582 876.736L246.191 882.998C246.191 889.829 251.7 895.395 258.461 895.395C265.348 895.395 270.888 889.671 270.888 882.84C270.888 876.008 265.379 870.284 258.461 870.284C253.641 870.284 249.477 873.225 247.411 877.242L216.923 870.411C215.389 870 213.886 871.106 213.48 872.656L203.964 916.173C187.405 916.869 172.505 921.898 161.298 929.709C158.262 926.515 153.973 924.554 149.278 924.554C131.874 924.554 126.177 948.147 142.11 956.212C141.546 958.71 141.296 961.367 141.296 964.023C141.296 990.526 170.845 1012 207.125 1012C243.561 1012 273.111 990.526 273.111 964.023C273.111 961.367 272.829 958.583 272.14 956.085C287.76 947.989 282.001 924.554 264.69 924.554ZM167.371 957.888C167.371 950.93 172.88 945.332 179.798 945.332C186.559 945.332 192.069 950.898 192.069 957.888C192.069 964.719 186.559 970.285 179.798 970.285C172.911 970.317 167.371 964.719 167.371 957.888ZM234.452 987.458C223.058 998.97 190.91 998.97 179.516 987.458C178.264 986.351 178.264 984.39 179.516 983.125C180.612 982.018 182.553 982.018 183.648 983.125C192.35 992.139 221.211 992.297 230.289 983.125C231.385 982.018 233.325 982.018 234.421 983.125C235.704 984.39 235.704 986.351 234.452 987.458ZM234.202 970.317C227.44 970.317 221.931 964.751 221.931 957.919C221.931 950.962 227.44 945.364 234.202 945.364C241.088 945.364 246.629 950.93 246.629 957.919C246.598 964.719 241.088 970.317 234.202 970.317Z" fill="#737373"/>
</g>
</g>
<defs>
<clipPath id="clip0_1_344">
<rect width="414" height="952" fill="white" transform="translate(0 110)"/>
</clipPath>
<clipPath id="clip1_1_344">
<rect width="149" height="50" fill="white" transform="translate(132.5 160)"/>
</clipPath>
<clipPath id="clip2_1_344">
<rect width="139" height="99" fill="white" transform="translate(137.5 270)"/>
</clipPath>
<clipPath id="clip3_1_344">
<rect width="149" height="109" fill="white" transform="translate(132.5 429)"/>
</clipPath>
<clipPath id="clip4_1_344">
<rect width="149" height="60" fill="white" transform="translate(132.5 598)"/>
</clipPath>
<clipPath id="clip5_1_344">
<rect width="149" height="60" fill="white" transform="translate(132.5 598)"/>
</clipPath>
<clipPath id="clip6_1_344">
<rect width="151" height="92" fill="white" transform="translate(131.5 718)"/>
</clipPath>
<clipPath id="clip7_1_344">
<rect width="153" height="92" fill="white" transform="translate(130.5 718)"/>
</clipPath>
<clipPath id="clip8_1_344">
<rect width="149" height="142" fill="white" transform="translate(132.5 870)"/>
</clipPath>
</defs>
</svg>
