<svg width="131" height="23" viewBox="0 0 131 23" fill="none" xmlns="http://www.w3.org/2000/svg">
<g clip-path="url(#clip0_1_594)">
<path d="M20.1308 8.41939C20.0732 8.24958 19.967 8.10037 19.8256 7.99018C19.6841 7.87999 19.5134 7.81365 19.3347 7.79934L14.1055 7.38383L11.8427 2.37482C11.7706 2.21349 11.6534 2.07646 11.5052 1.98028C11.357 1.88409 11.1841 1.83286 11.0074 1.83276C10.8307 1.83267 10.6577 1.88371 10.5094 1.97973C10.3611 2.07575 10.2437 2.21265 10.1715 2.3739L7.90867 7.38383L2.67951 7.79934C2.50382 7.81326 2.33586 7.8775 2.19572 7.98438C2.05559 8.09125 1.94921 8.23624 1.88931 8.40199C1.82941 8.56774 1.81854 8.74724 1.85799 8.91901C1.89744 9.09078 1.98553 9.24755 2.11175 9.37056L5.97605 13.1376L4.60937 19.0556C4.56788 19.2348 4.58118 19.4222 4.64755 19.5937C4.71392 19.7652 4.8303 19.9128 4.98159 20.0173C5.13288 20.1218 5.31208 20.1785 5.49596 20.1799C5.67983 20.1813 5.85988 20.1274 6.01274 20.0252L11.0071 16.6956L16.0014 20.0252C16.1577 20.1289 16.3419 20.1823 16.5294 20.1782C16.7169 20.1741 16.8986 20.1126 17.0502 20.0022C17.2017 19.8917 17.3158 19.7374 17.3771 19.5602C17.4383 19.3829 17.4438 19.1912 17.3929 19.0107L15.7152 13.1404L19.8758 9.39625C20.1482 9.15043 20.2482 8.76702 20.1308 8.41939Z" fill="#F3CD03"/>
<path d="M47.1457 8.41939C47.0881 8.24958 46.9819 8.10037 46.8404 7.99018C46.699 7.87999 46.5283 7.81365 46.3495 7.79934L41.1204 7.38383L38.8576 2.37482C38.7855 2.21349 38.6683 2.07646 38.5201 1.98028C38.3719 1.88409 38.199 1.83286 38.0223 1.83276C37.8456 1.83267 37.6726 1.88371 37.5243 1.97973C37.376 2.07575 37.2586 2.21265 37.1864 2.3739L34.9236 7.38383L29.6944 7.79934C29.5187 7.81326 29.3508 7.8775 29.2106 7.98438C29.0705 8.09125 28.9641 8.23624 28.9042 8.40199C28.8443 8.56774 28.8334 8.74724 28.8729 8.91901C28.9123 9.09078 29.0004 9.24755 29.1266 9.37056L32.9909 13.1376L31.6243 19.0556C31.5828 19.2348 31.5961 19.4222 31.6624 19.5937C31.7288 19.7652 31.8452 19.9128 31.9965 20.0173C32.1478 20.1218 32.327 20.1785 32.5109 20.1799C32.6947 20.1813 32.8748 20.1274 33.0276 20.0252L38.022 16.6956L43.0163 20.0252C43.1726 20.1289 43.3568 20.1823 43.5443 20.1782C43.7318 20.1741 43.9135 20.1126 44.0651 20.0022C44.2166 19.8917 44.3307 19.7374 44.392 19.5602C44.4532 19.3829 44.4587 19.1912 44.4078 19.0107L42.7301 13.1404L46.8907 9.39625C47.1631 9.15043 47.2631 8.76702 47.1457 8.41939Z" fill="#F3CD03"/>
<path d="M74.1567 8.41939C74.099 8.24958 73.9929 8.10037 73.8514 7.99018C73.7099 7.87999 73.5393 7.81365 73.3605 7.79934L68.1314 7.38383L65.8686 2.37482C65.7965 2.21349 65.6793 2.07646 65.5311 1.98028C65.3828 1.88409 65.21 1.83286 65.0333 1.83276C64.8566 1.83267 64.6836 1.88371 64.5353 1.97973C64.387 2.07575 64.2696 2.21265 64.1974 2.3739L61.9345 7.38383L56.7054 7.79934C56.5297 7.81326 56.3617 7.8775 56.2216 7.98438C56.0815 8.09125 55.9751 8.23624 55.9152 8.40199C55.8553 8.56774 55.8444 8.74724 55.8839 8.91901C55.9233 9.09078 56.0114 9.24755 56.1376 9.37056L60.0019 13.1376L58.6353 19.0556C58.5938 19.2348 58.6071 19.4222 58.6734 19.5937C58.7398 19.7652 58.8562 19.9128 59.0075 20.0173C59.1588 20.1218 59.338 20.1785 59.5218 20.1799C59.7057 20.1813 59.8858 20.1274 60.0386 20.0252L65.033 16.6956L70.0273 20.0252C70.1835 20.1289 70.3678 20.1823 70.5553 20.1782C70.7428 20.1741 70.9245 20.1126 71.0761 20.0022C71.2276 19.8917 71.3417 19.7374 71.4029 19.5602C71.4642 19.3829 71.4697 19.1912 71.4187 19.0107L69.7411 13.1404L73.9017 9.39625C74.1741 9.15043 74.2741 8.76702 74.1567 8.41939Z" fill="#F3CD03"/>
<path d="M101.171 8.41939C101.113 8.24958 101.007 8.10037 100.865 7.99018C100.724 7.87999 100.553 7.81365 100.375 7.79934L95.1454 7.38383L92.8826 2.37482C92.8105 2.21349 92.6933 2.07646 92.5451 1.98028C92.3969 1.88409 92.224 1.83286 92.0473 1.83276C91.8706 1.83267 91.6977 1.88371 91.5493 1.97973C91.401 2.07575 91.2836 2.21265 91.2114 2.3739L88.9486 7.38383L83.7194 7.79934C83.5437 7.81326 83.3758 7.8775 83.2356 7.98438C83.0955 8.09125 82.9891 8.23624 82.9292 8.40199C82.8693 8.56774 82.8585 8.74724 82.8979 8.91901C82.9374 9.09078 83.0255 9.24755 83.1517 9.37056L87.016 13.1376L85.6493 19.0556C85.6078 19.2348 85.6211 19.4222 85.6875 19.5937C85.7538 19.7652 85.8702 19.9128 86.0215 20.0173C86.1728 20.1218 86.352 20.1785 86.5359 20.1799C86.7197 20.1813 86.8998 20.1274 87.0527 20.0252L92.047 16.6956L97.0413 20.0252C97.1976 20.1289 97.3818 20.1823 97.5693 20.1782C97.7568 20.1741 97.9386 20.1126 98.0901 20.0022C98.2416 19.8917 98.3557 19.7374 98.417 19.5602C98.4782 19.3829 98.4838 19.1912 98.4328 19.0107L96.7552 13.1404L100.916 9.39625C101.188 9.15043 101.288 8.76702 101.171 8.41939Z" fill="#F3CD03"/>
<path d="M114.032 13.1377L112.665 19.0557C112.623 19.2349 112.635 19.4227 112.702 19.5945C112.768 19.7664 112.884 19.9143 113.035 20.0191C113.187 20.1238 113.366 20.1804 113.551 20.1814C113.735 20.1825 113.915 20.1281 114.068 20.0252L119.062 16.6956L124.056 20.0252C124.212 20.1289 124.397 20.1823 124.584 20.1782C124.772 20.1741 124.953 20.1127 125.105 20.0022C125.257 19.8917 125.371 19.7375 125.432 19.5602C125.493 19.383 125.499 19.1912 125.448 19.0107L123.77 13.1404L127.931 9.39628C128.064 9.27629 128.159 9.11988 128.204 8.94638C128.25 8.77289 128.243 8.58992 128.186 8.4201C128.128 8.25029 128.022 8.10107 127.88 7.99091C127.739 7.88075 127.568 7.81448 127.389 7.80029L122.16 7.38386L119.897 2.37485C119.825 2.21356 119.708 2.0766 119.56 1.98049C119.412 1.88439 119.239 1.83325 119.062 1.83325C118.885 1.83325 118.712 1.88439 118.564 1.98049C118.416 2.0766 118.298 2.21356 118.226 2.37485L115.963 7.38386L110.734 7.79937C110.559 7.81329 110.391 7.87753 110.251 7.98441C110.11 8.09128 110.004 8.23627 109.944 8.40202C109.884 8.56777 109.873 8.74727 109.913 8.91904C109.952 9.09081 110.04 9.24758 110.167 9.37059L114.032 13.1377ZM116.649 9.16972C116.812 9.15682 116.97 9.10012 117.104 9.00555C117.238 8.91098 117.344 8.78203 117.412 8.63222L119.062 4.98071L120.712 8.63222C120.779 8.78203 120.886 8.91098 121.02 9.00555C121.154 9.10012 121.311 9.15682 121.475 9.16972L125.118 9.45865L122.118 12.159C121.858 12.3938 121.754 12.7552 121.849 13.0927L122.999 17.1148L119.572 14.83C119.421 14.729 119.244 14.6751 119.063 14.6751C118.882 14.6751 118.705 14.729 118.555 14.83L114.974 17.2175L115.937 13.0478C115.972 12.8944 115.967 12.7346 115.923 12.5836C115.879 12.4326 115.796 12.2955 115.684 12.1856L112.897 9.46874L116.649 9.16972Z" fill="#F3CD03"/>
</g>
<defs>
<clipPath id="clip0_1_594">
<rect width="130.068" height="22.0136" fill="white"/>
</clipPath>
</defs>
</svg>
